# xmcd CD database file
#
# Track frame offsets:
#	150
#	17126
#	34483
#	48183
#	60771
#	75241
#	89222
#	100910
#	112814
#	127913
#	141508
#	161209
#	180840
#	192795
#	207149
#	222349
#	237649
#	252162
#
# Disc length: 3538 seconds
#
# Revision: 0
# Processed by: cddbd v1.5.1PL2 Copyright (c) Steve Scherf et al.
# Submitted via: CDex 1.50
#
DISCID=f20dd012
DTITLE=Various Artist - Bilitis
DYEAR=1900
DGENRE=New Age
TTITLE0=Annemiek Jasper - Für Elise
TTITLE1=Orchestra Francoise Dupont - An der schönen blauen Donau
TTITLE2=Orchestra Francoise Dupont - 9th Symphony
TTITLE3=Orchestra Francoise Dupont - Die Forelle
TTITLE4=Orchestra Francoise Dupont - Gern hab' ich die Frau'n geküßt
TTITLE5=Orchestra Francoise Dupont - Reich mir die Hand mein Leben (Don Giovanni)
TTITLE6=Orchestra Francoise Dupont - Meine Lippen küssen so heiß
TTITLE7=Orchestra Francoise Dupont - Oh mein Papa
TTITLE8=Orchestra Francoise Dupont - Oh mio bambino caro
TTITLE9=Annemiek Jasper - Symphony d'amour
TTITLE10=Orchestra Francoise Dupont - Air
TTITLE11=Orchestra Francoise Dupont - Aranjuez
TTITLE12=Orchestra Francoise Dupont - Au fond du temple saint (Les pecheurs de perles)
TTITLE13=Annemiek Jasper - Phantasy
TTITLE14=Orchestra Francoise Dupont - Dolannes Melody
TTITLE15=Annemiek Jasper - Swanlake
TTITLE16=Orchestra Francoise Dupont - G'schichten aus dem Wiener Wald
TTITLE17=Annemiek Jasper - Piano concert in A
EXTD=
EXTT0=
EXTT1=
EXTT2=
EXTT3=
EXTT4=
EXTT5=
EXTT6=
EXTT7=
EXTT8=
EXTT9=
EXTT10=
EXTT11=
EXTT12=
EXTT13=
EXTT14=
EXTT15=
EXTT16=
EXTT17=
PLAYORDER=
